<svg width="52" height="52" viewBox="0 0 52 52" fill="none" xmlns="http://www.w3.org/2000/svg">
<path fill-rule="evenodd" clip-rule="evenodd" d="M26 51C39.8071 51 51 39.8071 51 26C51 12.1929 39.8071 1 26 1C12.1929 1 1 12.1929 1 26C1 39.8071 12.1929 51 26 51Z" stroke="#CED4DA" stroke-linecap="round" stroke-linejoin="round"/>
<path d="M25.02 20.3C24.74 20.3 24.58 20.46 24.58 20.74V24.06H26.12C27.46 24.06 28.2 23.26 28.2 22.1C28.2 20.94 27.46 20.3 26.18 20.3H25.02ZM24.58 30.2C24.58 30.48 24.74 30.64 25.02 30.64H26.26C27.76 30.64 28.58 29.88 28.58 28.62C28.58 27.3 27.76 26.5 26.26 26.5H24.58V30.2ZM21.94 30.94V19.98C21.94 18.56 22.7 17.86 24.22 17.86H26.44C29.34 17.86 30.86 19.48 30.86 21.8C30.86 23.6 29.94 24.74 28.86 25.26C30.4 25.86 31.24 27.06 31.24 29C31.24 31.44 29.54 33.06 26.72 33.06H24.22C22.7 33.06 21.94 32.36 21.94 30.94Z" fill="#CED4DA"/>
</svg>
