<svg width="52" height="52" viewBox="0 0 52 52" fill="none" xmlns="http://www.w3.org/2000/svg">
<path fill-rule="evenodd" clip-rule="evenodd" d="M26 51C39.8071 51 51 39.8071 51 26C51 12.1929 39.8071 1 26 1C12.1929 1 1 12.1929 1 26C1 39.8071 12.1929 51 26 51Z" stroke="#CED4DA" stroke-linecap="round" stroke-linejoin="round"/>
<path fill-rule="evenodd" clip-rule="evenodd" d="M35 34.0064C35 34.555 34.5553 35.0002 34.0066 35.0002H29.4197V28.0294H31.7595L32.1101 25.3126H29.4197V23.5783C29.4197 22.7919 29.6384 22.2559 30.7661 22.2559L32.2047 22.2555V19.8254C31.9556 19.7926 31.102 19.7186 30.1086 19.7186C28.0346 19.7186 26.6146 20.9846 26.6146 23.3096V25.3126H24.2689V28.0294H26.6146V35.0002H17.9934C17.4447 35.0002 17 34.555 17 34.0064V17.9936C17 17.4445 17.4447 16.9998 17.9934 16.9998H34.0066C34.5553 16.9998 35 17.4445 35 17.9936V34.0064Z" fill="#CED4DA"/>
</svg>
