<svg width="52" height="52" viewBox="0 0 52 52" fill="none" xmlns="http://www.w3.org/2000/svg">
<path fill-rule="evenodd" clip-rule="evenodd" d="M26 51C39.8071 51 51 39.8071 51 26C51 12.1929 39.8071 1 26 1C12.1929 1 1 12.1929 1 26C1 39.8071 12.1929 51 26 51Z" stroke="#CED4DA" stroke-linecap="round" stroke-linejoin="round"/>
<path fill-rule="evenodd" clip-rule="evenodd" d="M32.8604 17H19.1396C17.9579 17 17 17.9554 17 19.1347V32.8653C17 34.0441 17.9579 35 19.1396 35H32.8604C34.0421 35 35 34.0441 35 32.8653V19.1347C35 17.9554 34.0421 17 32.8604 17ZM29.9377 19.8122C29.9377 19.5019 30.1896 19.2501 30.4999 19.2501H32.1873C32.4981 19.2501 32.7499 19.5019 32.7499 19.8122V21.4996C32.7499 21.8104 32.4981 22.0623 32.1873 22.0623H30.4999C30.1896 22.0623 29.9377 21.8104 29.9377 21.4996V19.8122ZM26.0209 22.5675C27.9327 22.5675 29.4826 24.114 29.4826 26.0209C29.4826 27.9282 27.9327 29.4743 26.0209 29.4743C24.1096 29.4743 22.5596 27.9282 22.5596 26.0209C22.5596 24.114 24.1096 22.5675 26.0209 22.5675ZM33.3126 32.7499C33.3126 33.0602 33.0607 33.3126 32.7499 33.3126H19.2501C18.9393 33.3126 18.6874 33.0602 18.6874 32.7499V24.3123H20.9375C20.6444 24.7341 20.5452 25.5211 20.5452 26.0209C20.5452 29.0329 23.002 31.4838 26.0209 31.4838C29.0403 31.4838 31.497 29.0329 31.497 26.0209C31.497 25.5211 31.4258 24.7458 31.0625 24.3123H33.3126V32.7499Z" fill="#CED4DA"/>
</svg>
