<svg width="154" height="24" viewBox="0 0 154 24" fill="none" xmlns="http://www.w3.org/2000/svg">
<path d="M9.10842 4.45374C4.08024 4.45374 0 8.53621 0 13.5671C0 15.6702 0.741862 17.6084 1.93709 19.1754C2.01951 19.2991 2.14316 19.4228 2.22559 19.5053C2.34923 19.6702 2.51409 19.8352 2.67895 20.0001C4.40996 21.8558 6.63555 23.2578 9.10842 24.0001C11.5813 23.2578 13.8069 21.8558 15.5379 20.0001C15.7028 19.8352 15.8264 19.6702 15.9913 19.5053C16.0737 19.3816 16.1973 19.2578 16.2798 19.1754C17.475 17.6496 18.2168 15.7115 18.2168 13.5671C18.2168 8.53621 14.1366 4.45374 9.10842 4.45374ZM9.10842 17.031C7.17134 17.031 5.60518 15.464 5.60518 13.5259C5.60518 11.5877 7.17134 10.0207 9.10842 10.0207C11.0455 10.0207 12.5704 11.5877 12.5704 13.5259C12.5704 15.464 11.0455 17.031 9.10842 17.031Z" fill="#FF8A3D"/>
<path d="M12.0756 4.24743C12.6938 4.12371 13.1472 3.58763 13.1472 2.92784C13.1472 2.18557 12.529 1.60825 11.8283 1.60825C11.6223 1.60825 11.4162 1.64949 11.2513 1.73196C11.004 0.742268 10.1385 0 9.10817 0C8.0778 0 7.2123 0.742268 7.00622 1.73196C6.84137 1.64949 6.63529 1.60825 6.42922 1.60825C5.68736 1.60825 5.11035 2.22681 5.11035 2.92784C5.11035 3.58763 5.56371 4.12371 6.18193 4.24743C7.12987 3.91753 8.11902 3.75258 9.14938 3.75258C10.1797 3.75258 11.1277 3.91753 12.0756 4.24743Z" fill="#56C271"/>
<path d="M24.7284 13.6902H30.2923C30.993 13.6902 31.5288 13.2778 31.5288 12.4118C31.5288 11.5458 30.993 11.1335 30.2923 11.1335H25.429C25.1817 11.1335 25.0169 10.9685 25.0169 10.7623V8.57676C25.0169 8.32934 25.1817 8.20563 25.429 8.20563H30.2923C30.993 8.20563 31.5288 7.79325 31.5288 6.92728C31.5288 6.0613 30.993 5.64893 30.2923 5.64893H24.7284C22.8325 5.64893 21.9258 6.47367 21.9258 8.08191V11.2984C21.9258 12.8654 22.8325 13.6902 24.7284 13.6902Z" fill="#FF8A3D"/>
<path d="M31.6936 14.7214H26.2121C23.7392 14.7214 22.1318 16.0823 22.1318 18.0616C22.1318 19.9998 23.7392 21.3606 26.2121 21.3606H31.6936C34.1665 21.3606 35.8151 19.9998 35.8151 18.0616C35.8151 16.0823 34.1665 14.7214 31.6936 14.7214ZM31.6936 18.8039H26.2121C25.5939 18.8039 25.2641 18.474 25.2641 18.0616C25.2641 17.608 25.5939 17.2781 26.2121 17.2781H31.6936C32.3118 17.2781 32.6416 17.608 32.6416 18.0616C32.6416 18.474 32.3118 18.8039 31.6936 18.8039Z" fill="#FF8A3D"/>
<path d="M36.3508 8.24727H35.4853V6.55655C35.4853 5.81428 34.8671 5.2782 33.9192 5.2782C33.0125 5.2782 32.353 5.81428 32.353 6.55655V13.0308C32.353 13.773 33.0125 14.3091 33.9192 14.3091C34.8259 14.3091 35.4853 13.773 35.4853 13.0308V11.2576H36.3508C37.0515 11.2576 37.6285 10.639 37.6285 9.7318C37.6285 8.90706 37.0515 8.24727 36.3508 8.24727Z" fill="#FF8A3D"/>
<path d="M51.8884 15.1336H39.1531C38.4112 15.1336 37.793 14.6388 37.793 13.7316C37.793 12.9068 38.4112 12.3707 39.1531 12.3707H51.8884C52.6302 12.3707 53.2485 12.9068 53.2485 13.7316C53.2485 14.6388 52.6715 15.1336 51.8884 15.1336ZM49.2919 10.6388V8.98928C49.2919 8.70062 49.127 8.53567 48.8797 8.53567H40.0186C39.2355 8.53567 38.6173 8.04083 38.6173 7.13361C38.6173 6.22639 39.2767 5.69031 40.0186 5.69031H49.5391C51.435 5.69031 52.383 6.68 52.383 8.41196V10.68C52.383 11.4223 51.7647 11.9584 50.8168 11.9584C49.8689 11.9584 49.2919 11.381 49.2919 10.6388ZM41.832 16.9068V18.0202C41.832 18.2264 41.9969 18.3914 42.2442 18.3914H51.3526C52.1357 18.3914 52.7539 18.8862 52.7539 19.7934C52.7539 20.7006 52.0944 21.1955 51.3526 21.1955H41.6259C39.7301 21.1955 38.7409 20.412 38.7409 18.68V16.9068C38.7409 16.1646 39.3591 15.6285 40.3071 15.6285C41.1726 15.6285 41.832 16.2058 41.832 16.9068Z" fill="#FF8A3D"/>
<path d="M54.8564 18.3503V7.8348C54.8564 6.3915 55.5983 5.64923 57.082 5.64923H61.1623C62.646 5.64923 63.3879 6.3915 63.3879 7.8348V18.3503C63.3879 19.7936 62.646 20.5358 61.1623 20.5358H57.082C55.5571 20.5358 54.8564 19.7936 54.8564 18.3503ZM60.4204 17.3606V8.82449C60.4204 8.61831 60.2968 8.49459 60.1319 8.49459H58.1124C57.9475 8.49459 57.8239 8.61831 57.8239 8.82449V17.3193C57.8239 17.5255 57.9475 17.6492 58.1124 17.6492H60.1319C60.2968 17.6905 60.4204 17.5255 60.4204 17.3606ZM65.2425 20.041V6.68016C65.2425 5.89666 65.902 5.31934 66.8087 5.31934C67.7154 5.31934 68.3748 5.93789 68.3748 6.68016V11.0513H69.2404C69.941 11.0513 70.518 11.7111 70.518 12.5771C70.518 13.4843 69.941 14.1441 69.2404 14.1441H68.3748V20.0822C68.3748 20.8657 67.7566 21.4431 66.8087 21.4431C65.902 21.4018 65.2425 20.8245 65.2425 20.041Z" fill="#FF8A3D"/>
<path d="M78.5136 8.9482H79.1318V6.55645C79.1318 5.85542 79.7088 5.40181 80.5331 5.40181C81.3574 5.40181 81.9344 5.85542 81.9344 6.55645V13.7729C81.9344 14.474 81.3986 14.9276 80.5331 14.9276C79.6676 14.9276 79.1318 14.4327 79.1318 13.7317V11.6286H78.5136C78.1839 11.6286 77.8542 11.4637 77.6481 11.175C76.7826 13.0719 75.2989 14.5977 73.1969 15.5461C72.5375 15.8348 71.7956 15.6698 71.4247 15.0101C71.0538 14.3503 71.301 13.5668 71.878 13.2781C72.826 12.8657 73.6091 12.2884 74.2273 11.5874H72.7023C72.1253 11.5874 71.5895 11.2575 71.5895 10.474C71.5895 9.77294 72.0841 9.36057 72.7023 9.36057H75.3813C75.4637 9.07191 75.5462 8.78325 75.5462 8.49459C75.5874 8.24717 75.4637 8.08222 75.2164 8.08222H72.7436C72.0429 8.08222 71.5483 7.66985 71.5483 6.88635C71.5483 6.10284 72.0429 5.64923 72.7436 5.64923H75.711C77.6893 5.64923 78.596 6.59769 78.3075 8.74202C78.3075 8.82449 78.3075 8.90696 78.2663 8.98944C78.39 8.9482 78.4312 8.9482 78.5136 8.9482ZM84.0776 21.1131C82.1817 20.7008 79.9149 19.6698 78.4312 18.474C77.0711 19.8348 75.2577 20.8245 73.3206 21.1956C72.6611 21.3193 71.9193 21.0307 71.672 20.2059C71.4659 19.4224 71.8368 18.7626 72.5375 18.5564C74.6394 18.0204 76.3704 16.7833 77.236 15.175C77.5245 14.6802 78.2251 14.3503 79.0906 14.5977C79.9561 14.8863 80.3271 15.7111 80.0386 16.2884V16.3296C81.275 17.3193 83.0472 18.1028 84.8195 18.5152C85.4789 18.6802 85.891 19.34 85.685 20.1235C85.4789 20.9482 84.737 21.2781 84.0776 21.1131ZM82.6351 14.2266V6.47397C82.6351 5.77294 83.2121 5.31934 84.0776 5.31934C84.9431 5.31934 85.5201 5.77294 85.5201 6.47397V14.2266C85.5201 14.9276 84.9431 15.3812 84.0776 15.3812C83.2121 15.3812 82.6351 14.9276 82.6351 14.2266Z" fill="#FF8A3D"/>
<path d="M99.695 19.6146C97.3815 19.6146 96.0845 19.1061 96.0845 18.124C96.0845 17.1595 97.3815 16.6335 99.695 16.6335C102.008 16.6335 103.323 17.1595 103.323 18.124C103.323 19.1061 102.008 19.6146 99.695 19.6146ZM99.695 15.2481C96.3123 15.2481 94.2442 16.3003 94.2442 18.124C94.2442 19.9653 96.3123 21.0175 99.695 21.0175C103.095 21.0175 105.146 19.9653 105.146 18.124C105.146 16.3003 103.095 15.2481 99.695 15.2481ZM100.641 12.8106V11.2323H105.251V9.77679H96.1546V7.30417H105.146V5.8662H94.3669V11.2323H98.8362V12.8106H92.5967V14.2836H106.898V12.8106H100.641Z" fill="#495057"/>
<path d="M110.823 6.76055H109.035V17.0894H110.104C112.05 17.0894 113.785 17.0017 115.783 16.5984L115.555 15.0903C113.89 15.4059 112.4 15.5111 110.823 15.5462V6.76055ZM116.8 10.3379H113.435V11.811H116.8V20.2459H118.482V5.4804H116.8V10.3379ZM120.147 5.14722V21H121.882V5.14722H120.147Z" fill="#495057"/>
<path d="M124.896 6.8307V8.30374H130.434C130.066 11.9513 127.98 14.7395 124.107 16.7211L125.106 18.1065C130.276 15.4936 132.239 11.4252 132.239 6.8307H124.896ZM138.777 11.4077H136.376V5.14722H134.57V20.9825H136.376V12.9158H138.777V11.4077Z" fill="#495057"/>
<path d="M148.38 11.4603H146.049C146.505 10.11 146.715 8.65447 146.715 7.11128H140.563V8.56679H144.927C144.664 11.811 143.104 14.4064 139.809 16.3704L140.843 17.6506C143.034 16.3353 144.542 14.7395 145.47 12.9158H148.38V20.2459H150.08V5.55055H148.38V11.4603ZM151.692 5.16475V21H153.428V5.16475H151.692Z" fill="#495057"/>
</svg>
